<?xml version="1.0" encoding="utf-8"?>
<!-- Generator: Adobe Illustrator 19.0.0, SVG Export Plug-In . SVG Version: 6.00 Build 0)  -->
<svg version="1.1" id="icon-0" xmlns:svgjs="http://svgjs.dev/svgjs"
	 xmlns="http://www.w3.org/2000/svg" xmlns:xlink="http://www.w3.org/1999/xlink" x="0px" y="0px"
	 viewBox="591.8 482.8 738.1 206.4" style="enable-background:new 591.8 482.8 738.1 206.4;" xml:space="preserve">
<style type="text/css">
	.st0{fill:#FFFF00;}
	.st1{fill:#010536;}
	.st2{display:none;fill:none;}
</style>
<circle class="st0" cx="700.8" cy="590.5" r="89.2"/>
<g>
	<path class="st1" d="M724.8,619.3h-47.1c-3.9,0-7.1-3.2-7.2-7.1c0-0.8,0.1-1.7,0.4-2.5l7.7-21.1c1.5-4.1,5.4-6.7,9.8-6.7H714
		c4.3,0,8.2,2.7,9.8,6.7l7.7,21.1c1.3,3.7-0.6,7.8-4.3,9.1C726.4,619.2,725.6,619.3,724.8,619.3L724.8,619.3z"/>
	<polygon class="st1" points="701.2,596.4 691.4,596.4 688.3,604.7 701.2,604.7 	"/>
	<path class="st1" d="M708.7,563.5v-13.6c0.2-4.1-2.9-7.6-7-7.8s-7.6,2.9-7.8,7c0,0.3,0,0.5,0,0.8v13.7c0.2,4.1,3.7,7.2,7.8,7
		C705.4,570.4,708.4,567.4,708.7,563.5L708.7,563.5z"/>
	<path class="st1" d="M759,594.9h-13.7c-4.1,0.2-7.2,3.7-7,7.8c0.2,3.8,3.2,6.8,7,7H759c4.1-0.2,7.2-3.7,7-7.8
		C765.8,598.1,762.8,595.1,759,594.9z"/>
	<path class="st1" d="M738.8,579.2l9.7-9.7c2.9-2.9,2.9-7.6,0-10.5c-2.9-2.8-7.6-2.8-10.5,0l-9.7,9.7c-2.8,3-2.5,7.7,0.5,10.5
		C731.6,581.8,735.9,581.8,738.8,579.2z"/>
	<path class="st1" d="M636,602.5c0,4.1,3.3,7.4,7.4,7.4c0,0,0,0,0,0h13.7c4.1-0.2,7.2-3.7,7-7.8c-0.2-3.8-3.2-6.8-7-7h-13.7
		C639.4,595.1,636.1,598.4,636,602.5C636,602.5,636,602.5,636,602.5z"/>
	<path class="st1" d="M669,581.5c4.1,0,7.4-3.3,7.4-7.5c0-2-0.8-3.8-2.2-5.2l-9.7-9.7c-2.8-3-7.5-3.3-10.5-0.5
		c-3,2.8-3.3,7.5-0.5,10.5c0.2,0.2,0.3,0.3,0.5,0.5l9.6,9.7C665.1,580.7,667,581.5,669,581.5z"/>
</g>
<rect x="360.3" y="189.7" class="st2" width="998.1" height="446.2"/>
<g>
	<path class="st1" d="M835.4,614.7c-0.4,0-0.8-0.2-0.9-0.6l-19.7-46.6c-0.1-0.3-0.1-0.7,0.1-0.9c0.2-0.3,0.5-0.4,0.8-0.4h10.7
		c0.4,0,0.8,0.2,0.9,0.6l6.2,14.9l7.2,19.1l6.4-17.2l7-16.9c0.2-0.4,0.5-0.6,0.9-0.6h10.6c0.3,0,0.6,0.2,0.8,0.4s0.2,0.6,0.1,0.9
		l-19.6,46.6c-0.2,0.4-0.5,0.6-0.9,0.6H835.4z"/>
	<path class="st1" d="M865.6,567.1L846,613.7h-10.6l-19.7-46.6h10.7l6.2,14.9l8.2,21.5l7.3-19.6l7-16.8H865.6z"/>
	<path class="st1" d="M893,615.8c-7.3,0-13.3-2.3-17.9-6.7c-4.6-4.5-6.9-10.8-6.9-18.7c0-7.8,2.4-14,7.1-18.4
		c4.7-4.5,10.7-6.7,17.8-6.7c3.5,0,6.8,0.8,9.8,2.3c2,1,3.7,2.4,5.1,4l0.2-4.3c0-0.5,0.5-1,1-1h9.4c0.6,0,1,0.4,1,1v46.3
		c0,0.6-0.4,1-1,1h-9.2c-0.5,0-1-0.4-1-0.9l-0.3-4.5c-1.4,1.7-3.2,3.2-5.4,4.3C899.5,615,896.2,615.8,893,615.8z M893.9,576
		c-4,0-7.3,1.3-10,3.9c-2.7,2.6-4,6-4,10.4c0,4.4,1.3,7.8,4,10.5c2.7,2.7,6,3.9,10,3.9c4.5,0,7.9-1.4,10.3-4.2
		c2.5-2.8,3.7-6.3,3.7-10.2c0-3.9-1.2-7.3-3.7-10.1C901.8,577.4,898.4,576,893.9,576z"/>
	<path class="st1" d="M909.2,567.2h9.4v46.3h-9.2L909,606c-1.4,2.8-3.6,5-6.7,6.5c-3.1,1.5-6.2,2.3-9.3,2.3c-7,0-12.7-2.1-17.2-6.4
		c-4.4-4.3-6.6-10.3-6.6-18c0-7.5,2.3-13.4,6.8-17.7c4.5-4.3,10.3-6.4,17.2-6.4c3.4,0,6.5,0.7,9.4,2.2c2.9,1.5,5,3.5,6.4,6.2
		L909.2,567.2z M893.9,575c-4.3,0-7.8,1.4-10.7,4.2c-2.9,2.8-4.3,6.5-4.3,11.1c0,4.6,1.4,8.4,4.3,11.2c2.9,2.8,6.5,4.2,10.7,4.2
		c4.8,0,8.5-1.5,11.1-4.6c2.6-3,3.9-6.7,3.9-10.9c0-4.1-1.3-7.7-3.9-10.8C902.4,576.5,898.7,575,893.9,575z"/>
	<path class="st1" d="M932.2,614.6c-0.6,0-1-0.4-1-1v-65.7c0-0.6,0.4-1,1-1h9.7c0.6,0,1,0.4,1,1v65.7c0,0.6-0.4,1-1,1H932.2z"/>
	<path class="st1" d="M941.9,547.9v65.7h-9.7v-65.7H941.9z"/>
	<path class="st1" d="M974.2,615.7c-6.1,0-11.1-2.1-14.9-6.2c-3.8-4.1-5.7-9.8-5.7-16.9v-25.1c0-0.6,0.4-1,1-1h9.7c0.6,0,1,0.4,1,1
		v25c0,3.8,1,6.8,3,9.1c2,2.2,4.8,3.3,8.6,3.3c3.5,0,6.3-1.2,8.5-3.7c2.2-2.5,3.4-5.6,3.4-9.3v-24.3c0-0.6,0.4-1,1-1h9.7
		c0.6,0,1,0.4,1,1v46.2c0,0.6-0.4,1-1,1h-8.7c-0.5,0-1-0.4-1-0.9l-0.4-4.3C985.1,613.6,980.1,615.7,974.2,615.7z"/>
	<path class="st1" d="M964.3,567.4v25c0,4.1,1.1,7.3,3.3,9.7c2.2,2.4,5.3,3.6,9.3,3.6c3.8,0,6.8-1.3,9.3-4c2.4-2.7,3.6-6,3.6-10
		v-24.3h9.7v46.2h-8.7l-0.6-6.5c-4.3,5-9.7,7.5-16,7.5c-5.8,0-10.5-2-14.1-5.9c-3.6-3.9-5.4-9.4-5.4-16.3v-25.1H964.3z"/>
	<path class="st1" d="M1034.8,615.9c-7.8,0-14.2-2.3-18.9-7c-4.7-4.6-7.1-10.9-7.1-18.6c0-7.3,2.4-13.4,7.1-18.1
		c4.7-4.7,10.8-7.1,18.3-7.1c7.4,0,13.4,2.1,17.8,6.4c4.4,4.3,6.7,10.5,6.7,18.5c0,0.9-0.1,2.3-0.2,4.2c0,0.5-0.5,0.9-1,0.9H1021
		c0.6,2.8,1.9,5,4.1,6.7c2.5,2,5.8,2.9,9.8,2.9c2.4,0,4.9-0.4,7.3-1.3c2.3-0.8,4.1-2,5.4-3.4c0.2-0.2,0.4-0.3,0.7-0.3c0,0,0,0,0,0
		c0.3,0,0.5,0.1,0.7,0.3l6.3,6.1c0.4,0.4,0.4,1,0,1.4c-2.4,2.7-5.5,4.7-9.3,6.1C1042.5,615.2,1038.7,615.9,1034.8,615.9z M1047,585
		c-0.4-2.8-1.6-5-3.6-6.5c-2.2-1.8-5.3-2.6-9-2.6c-3.5,0-6.4,0.9-8.8,2.7c-2.1,1.6-3.5,3.7-4.3,6.5H1047z"/>
	<path class="st1" d="M1019.9,594.2c0.4,3.6,2,6.4,4.7,8.5c2.7,2.1,6.2,3.1,10.4,3.1c2.6,0,5.1-0.4,7.6-1.3c2.5-0.9,4.4-2.1,5.8-3.7
		l6.3,6.1c-2.3,2.6-5.3,4.5-8.9,5.9s-7.3,2-11,2c-7.6,0-13.6-2.2-18.2-6.7c-4.5-4.4-6.8-10.4-6.8-17.9c0-7.1,2.3-12.9,6.8-17.4
		c4.5-4.5,10.4-6.8,17.6-6.8c7.1,0,12.8,2,17.1,6.1c4.3,4.1,6.4,10,6.4,17.8c0,0.9-0.1,2.3-0.2,4.1H1019.9z M1048.2,586
		c-0.3-3.6-1.7-6.4-4.1-8.3c-2.4-1.9-5.6-2.9-9.6-2.9c-3.7,0-6.8,1-9.4,2.9c-2.6,1.9-4.2,4.7-5,8.3H1048.2z"/>
	<path class="st1" d="M1080.7,614.7c-0.4,0-0.8-0.2-0.9-0.6l-19.7-46.6c-0.1-0.3-0.1-0.7,0.1-0.9c0.2-0.3,0.5-0.4,0.8-0.4h10.7
		c0.4,0,0.8,0.2,0.9,0.6l6.2,14.9l7.2,19.1l6.4-17.2l7-16.9c0.2-0.4,0.5-0.6,0.9-0.6h10.6c0.3,0,0.6,0.2,0.8,0.4s0.2,0.6,0.1,0.9
		l-19.6,46.6c-0.2,0.4-0.5,0.6-0.9,0.6H1080.7z"/>
	<path class="st1" d="M1111,567.1l-19.6,46.6h-10.6l-19.7-46.6h10.7l6.2,14.9l8.2,21.5l7.3-19.6l7-16.8H1111z"/>
	<path class="st1" d="M1119.2,614.6c-0.6,0-1-0.4-1-1V567c0-0.6,0.4-1,1-1h9.7c0.6,0,1,0.4,1,1v46.5c0,0.6-0.4,1-1,1H1119.2z
		 M1124.1,560.6c-1.9,0-3.5-0.6-4.9-1.9c-1.4-1.3-2.1-3-2.1-5.2c0-2.2,0.7-3.9,2.1-5.1c1.4-1.2,3-1.8,4.9-1.8c1.9,0,3.5,0.6,4.9,1.8
		c1.4,1.2,2.1,3,2.1,5.1c0,2.2-0.7,3.9-2.1,5.2C1127.6,560,1126,560.6,1124.1,560.6z"/>
	<path class="st1" d="M1119.9,558c-1.2-1.1-1.8-2.5-1.8-4.4s0.6-3.3,1.8-4.4c1.2-1,2.6-1.6,4.2-1.6c1.6,0,3,0.5,4.2,1.6
		c1.2,1,1.8,2.5,1.8,4.4s-0.6,3.4-1.8,4.4c-1.2,1.1-2.6,1.6-4.2,1.6C1122.5,559.6,1121.1,559.1,1119.9,558z M1128.9,567v46.5h-9.7
		V567H1128.9z"/>
	<path class="st1" d="M1159.6,616c-9.3,0-16.6-3-21.9-8.9c-0.3-0.4-0.3-0.9-0.1-1.3l5.1-6.9c0.2-0.2,0.5-0.4,0.7-0.4c0,0,0,0,0.1,0
		c0.3,0,0.5,0.1,0.7,0.3c3.9,4.2,9.2,6.4,15.5,6.5c2.4,0,4.6-0.5,6.4-1.4c1.7-0.9,2.4-2.1,2.4-3.8c0-1.5-0.7-2.6-2.1-3.3
		c-1.7-0.9-4.2-1.5-7.7-1.9c-13.1-1.1-19.8-6.1-19.8-14.9c0-5.1,2.1-8.9,6.4-11.4c4.1-2.4,8.7-3.6,13.9-3.6c7.4,0,13.6,2.1,18.5,6.3
		c0.4,0.4,0.5,1,0.1,1.4l-5.5,6.4c-0.2,0.2-0.4,0.3-0.7,0.3c0,0,0,0-0.1,0c-0.3,0-0.5-0.1-0.7-0.3c-2.9-2.7-6.9-4.1-11.9-4.1
		c-2.8,0-4.9,0.4-6.5,1.3c-1.4,0.8-2,1.8-2,3.2c0,1.4,0.7,2.4,2.1,3.2c1.6,0.8,4,1.4,7.1,1.8c2.1,0.2,3.9,0.4,5.4,0.7
		c1.6,0.3,3.3,0.7,5.3,1.4c2,0.7,3.7,1.6,5,2.6c1.3,1.1,2.5,2.5,3.4,4.4c0.9,1.9,1.4,4,1.4,6.5c0,4.6-2,8.5-5.8,11.4
		C1170.7,614.5,1165.7,616,1159.6,616z"/>
	<path class="st1" d="M1171.7,578.6c-3.1-2.9-7.3-4.3-12.6-4.3c-2.9,0-5.3,0.5-7,1.5c-1.7,1-2.5,2.3-2.5,4.1c0.1,1.8,0.9,3.2,2.6,4
		c1.7,0.9,4.2,1.5,7.4,1.9c2.1,0.2,3.9,0.4,5.4,0.7c1.5,0.3,3.2,0.7,5.2,1.4s3.5,1.5,4.7,2.4c1.2,1,2.3,2.3,3.1,4
		c0.8,1.7,1.3,3.7,1.3,6.1c0,4.3-1.8,7.8-5.4,10.6c-3.6,2.7-8.4,4.1-14.3,4.1c-9,0-16.1-2.9-21.2-8.6l5.1-6.9
		c4.1,4.5,9.6,6.7,16.3,6.9c2.6,0,4.9-0.5,6.9-1.6c2-1,3-2.6,3-4.7c0-1.9-0.9-3.3-2.7-4.2c-1.8-0.9-4.5-1.6-8-2
		c-12.6-1.1-18.9-5.7-18.9-13.9c0-4.7,2-8.2,5.9-10.5c3.9-2.3,8.4-3.5,13.4-3.5c7.1,0,13.1,2,17.9,6.1L1171.7,578.6z"/>
	<path class="st1" d="M1189,614.6c-0.6,0-1-0.4-1-1V567c0-0.6,0.4-1,1-1h9.7c0.6,0,1,0.4,1,1v46.5c0,0.6-0.4,1-1,1H1189z
		 M1193.9,560.6c-1.9,0-3.5-0.6-4.9-1.9c-1.4-1.3-2.1-3-2.1-5.2c0-2.2,0.7-3.9,2.1-5.1c1.4-1.2,3-1.8,4.9-1.8c1.9,0,3.5,0.6,4.9,1.8
		c1.4,1.2,2.1,3,2.1,5.1c0,2.2-0.7,3.9-2.1,5.2C1197.4,560,1195.7,560.6,1193.9,560.6z"/>
	<path class="st1" d="M1189.6,558c-1.2-1.1-1.8-2.5-1.8-4.4s0.6-3.3,1.8-4.4c1.2-1,2.6-1.6,4.2-1.6c1.6,0,3,0.5,4.2,1.6
		c1.2,1,1.8,2.5,1.8,4.4s-0.6,3.4-1.8,4.4c-1.2,1.1-2.6,1.6-4.2,1.6C1192.2,559.6,1190.8,559.1,1189.6,558z M1198.7,567v46.5h-9.7
		V567H1198.7z"/>
	<path class="st1" d="M1232.8,615.6c-7.5,0-13.5-2.4-18.1-7.1c-4.5-4.7-6.8-10.8-6.8-18c0-7.1,2.3-13.2,6.9-17.9
		c4.6-4.8,10.6-7.2,18-7.2c7.3,0,13.4,2.4,18.1,7.2c4.6,4.8,7,10.8,7,17.9c0,7.3-2.3,13.3-6.9,18
		C1246.3,613.2,1240.2,615.6,1232.8,615.6z M1232.8,576.2c-4,0-7.1,1.3-9.5,4.1c-2.4,2.7-3.7,6.2-3.7,10.1c0,4,1.2,7.3,3.6,10.1
		c2.4,2.7,5.5,4,9.5,4c4.1,0,7.2-1.3,9.6-4c2.4-2.7,3.6-6.1,3.6-10.1c0-3.9-1.3-7.3-3.7-10.1
		C1239.8,577.6,1236.7,576.2,1232.8,576.2z"/>
	<path class="st1" d="M1215.5,573.2c4.4-4.6,10.2-6.9,17.2-6.9c7.1,0,12.9,2.3,17.3,6.9c4.5,4.6,6.7,10.4,6.7,17.2
		c0,7-2.2,12.8-6.6,17.3c-4.4,4.5-10.2,6.8-17.4,6.8c-7.2,0-13-2.3-17.3-6.8c-4.4-4.5-6.5-10.3-6.5-17.3
		C1208.9,583.5,1211.1,577.8,1215.5,573.2z M1232.8,575.2c-4.3,0-7.7,1.5-10.3,4.4c-2.6,2.9-3.9,6.5-3.9,10.8
		c0,4.3,1.3,7.8,3.9,10.8c2.6,2.9,6,4.4,10.3,4.4c4.3,0,7.8-1.5,10.4-4.4c2.6-2.9,3.9-6.5,3.9-10.8c0-4.2-1.3-7.8-4-10.8
		C1240.4,576.7,1237,575.2,1232.8,575.2z"/>
	<path class="st1" d="M1302.2,614.6c-0.6,0-1-0.4-1-1v-24.8c0-3.8-1-6.9-3-9.2c-2-2.3-4.8-3.4-8.5-3.4c-3.6,0-6.4,1.2-8.6,3.8
		c-2.2,2.6-3.4,5.7-3.4,9.3v24.3c0,0.6-0.4,1-1,1h-9.7c-0.6,0-1-0.4-1-1v-46.4c0-0.6,0.4-1,1-1h8.8c0.5,0,1,0.4,1,0.9l0.4,4.5
		c4.2-4.2,9.2-6.3,14.8-6.3c6.1,0,11.2,2.1,15.1,6.2c3.9,4.1,5.9,9.9,5.9,17.1v24.9c0,0.6-0.4,1-1,1H1302.2z"/>
	<path class="st1" d="M1302.2,613.6v-24.8c0-4.1-1.1-7.3-3.3-9.8c-2.2-2.5-5.3-3.7-9.2-3.7c-3.8,0-6.9,1.4-9.4,4.1
		c-2.4,2.8-3.6,6.1-3.6,10v24.3h-9.7v-46.4h8.8l0.6,6.8c4.4-5.1,9.6-7.6,15.6-7.6c5.8,0,10.6,2,14.3,5.9c3.7,3.9,5.6,9.4,5.6,16.5
		v24.9H1302.2z"/>
</g>
</svg>
